<?xml version="1.0" encoding="UTF-8" standalone="no"?>
<svg
   xmlns:dc="http://purl.org/dc/elements/1.1/"
   xmlns:cc="http://creativecommons.org/ns#"
   xmlns:rdf="http://www.w3.org/1999/02/22-rdf-syntax-ns#"
   xmlns:svg="http://www.w3.org/2000/svg"
   xmlns="http://www.w3.org/2000/svg"
   xmlns:sodipodi="http://sodipodi.sourceforge.net/DTD/sodipodi-0.dtd"
   xmlns:inkscape="http://www.inkscape.org/namespaces/inkscape"
   width="210mm"
   height="210mm"
   viewBox="0 0 210 210"
   version="1.1"
   id="svg8"
   inkscape:version="1.0.1 (3bc2e813f5, 2020-09-07)"
   sodipodi:docname="Twitter data.svg"
   inkscape:export-filename="D:\iPhone\Twitter\Twitter icon.png"
   inkscape:export-xdpi="25.4"
   inkscape:export-ydpi="25.4">
  <defs
     id="defs2" />
  <sodipodi:namedview
     id="base"
     pagecolor="#ffffff"
     bordercolor="#666666"
     borderopacity="1.0"
     inkscape:pageopacity="0.0"
     inkscape:pageshadow="2"
     inkscape:zoom="0.4257503"
     inkscape:cx="709.31661"
     inkscape:cy="336.01943"
     inkscape:document-units="mm"
     inkscape:current-layer="layer1"
     inkscape:document-rotation="0"
     showgrid="false"
     showguides="false"
     inkscape:window-width="1920"
     inkscape:window-height="1017"
     inkscape:window-x="-8"
     inkscape:window-y="166"
     inkscape:window-maximized="1"
     inkscape:object-paths="true"
     inkscape:snap-intersection-paths="true"
     inkscape:snap-smooth-nodes="true"
     inkscape:snap-global="false" />
  <metadata
     id="metadata5">
    <rdf:RDF>
      <cc:Work
         rdf:about="">
        <dc:format>image/svg+xml</dc:format>
        <dc:type
           rdf:resource="http://purl.org/dc/dcmitype/StillImage" />
        <dc:title></dc:title>
      </cc:Work>
    </rdf:RDF>
  </metadata>
  <g
     inkscape:label="レイヤー 1"
     inkscape:groupmode="layer"
     id="layer1">
    <g
       id="g236"
       transform="matrix(0.21503042,0,0,0.20921719,105.59616,-1.6324668)"
       style="fill:#5e5e5e;fill-opacity:1">
      <path
         id="path188"
         style="fill:#5e5e5e;fill-rule:evenodd;stroke-width:472.384;stroke-linecap:round;stroke-linejoin:round;fill-opacity:1"
         d="m -664.31055,1413.625 a 771.35528,684.77461 0 0 0 -540.23245,195.998 639.12291,327.43243 0 0 1 540.23245,323.4883 639.12291,327.43243 0 0 1 -639.12305,327.4317 639.12291,327.43243 0 0 1 -111.6562,-5.0352 771.35528,684.77461 0 0 0 750.77925,527.668 771.35528,684.77461 0 0 0 771.35547,-684.7754 771.35528,684.77461 0 0 0 -771.35547,-684.7754 z"
         transform="scale(0.26458333)" />
      <path
         id="path212"
         style="fill:#5e5e5e;fill-rule:evenodd;stroke-width:396.45;stroke-linecap:round;stroke-linejoin:round;fill-opacity:1"
         d="m -1578.6133,581.72852 a 713.11002,743.01977 0 0 0 -99.4785,378.52929 713.11002,743.01977 0 0 0 713.11133,743.01949 713.11002,743.01977 0 0 0 383.48047,-116.58 557.2648,596.61966 0 0 0 -13.54492,130.748 557.2648,596.61966 0 0 0 557.26367,596.6211 557.2648,596.61966 0 0 0 557.26563,-596.6211 557.2648,596.61966 0 0 0 -91.26954,-327.1816 2117.2918,1704.8525 0 0 1 -199.95703,7.6211 2117.2918,1704.8525 0 0 1 -1806.87111,-816.15628 z"
         transform="scale(0.26458333)" />
      <path
         id="path199"
         style="fill:#5e5e5e;fill-rule:evenodd;stroke-width:353.384;stroke-linecap:round;stroke-linejoin:round;fill-opacity:1"
         d="m -1680.918,1499.584 a 815.43265,752.46492 0 0 0 -0.3222,21.0879 815.43265,752.46492 0 0 0 815.43356,752.4648 A 815.43265,752.46492 0 0 0 -51.775391,1564.75 H -1093.6289 a 560.41318,346.32274 0 0 1 -209.8047,25.1855 560.41318,346.32274 0 0 1 -377.4844,-90.3515 z"
         transform="scale(0.26458333)" />
      <g
         id="g186"
         style="fill:#5e5e5e;fill-opacity:1">
        <g
           id="g26"
           style="fill:#5e5e5e;fill-opacity:1">
          <path
             id="path36"
             style="fill:#5e5e5e;stroke-width:692.251;stroke-linecap:round;stroke-linejoin:round;fill-opacity:1"
             d="M 1454.4473,1172.2793 -472.57422,2465.166 a 1419.1671,812.26616 0 0 1 -1383.45898,642.8985 2168.2027,1981.5606 0 0 0 1161.38086,308.2421 2168.2027,1981.5606 0 0 0 2168.20314,-1981.5605 2168.2027,1981.5606 0 0 0 -19.1035,-262.4668 z"
             transform="scale(0.26458333)" />
          <path
             id="path17"
             style="fill:#5e5e5e;stroke-width:205.146;stroke-linecap:round;stroke-linejoin:round;fill-opacity:1"
             d="m 712.39844,436.34375 a 765.82889,783.63882 0 0 0 -765.828128,783.63865 765.82889,783.63882 0 0 0 765.828128,783.6406 765.82889,783.63882 0 0 0 33.76953,-0.7636 V 1133.4199 H 1473.541 A 765.82889,783.63882 0 0 0 712.39844,436.34375 Z"
             transform="scale(0.26458333)" />
        </g>
        <path
           id="path28"
           style="fill:#5e5e5e;stroke-width:508.607;stroke-linecap:round;stroke-linejoin:round;fill-opacity:1"
           d="M 1731.0312,499.57422 A 1167.6665,534.29925 0 0 1 766.94141,732.43555 1167.6665,534.29925 0 0 1 745.10352,732.3418 569.91918,656.74283 0 0 0 1184.3633,970.64453 569.91918,656.74283 0 0 0 1731.0312,499.57422 Z"
           transform="scale(0.26458333)" />
        <path
           id="path43"
           style="fill:#5e5e5e;stroke-width:508.607;stroke-linecap:round;stroke-linejoin:round;fill-opacity:1"
           d="m 1827.8379,798.99414 a 1167.6665,534.29923 7.9132915 0 1 -986.96876,97.91406 1167.6665,534.29923 7.9132915 0 1 -21.61523,-3.09961 569.91916,656.7428 7.9132915 0 0 402.26759,296.50781 569.91916,656.7428 7.9132915 0 0 257.123,-31.6406 l 343.7832,-346.81447 a 569.91916,656.7428 7.9132915 0 0 5.4102,-12.86719 z"
           transform="scale(0.26458333)" />
        <path
           id="path57"
           style="fill:#5e5e5e;stroke-width:1023.38;stroke-linecap:round;stroke-linejoin:round;fill-opacity:1"
           d="m 1835.0762,795.08398 -7.791,4.17774 a 1167.6665,534.29918 7.9132915 0 1 -66.7989,28.93359 l -308.9726,241.95899 v 122.7773 a 590.4159,1129.4942 56.31038 0 0 383.5625,-397.84762 z m -8.6367,7.30274 0.055,0.0996 -0.1679,0.17187 a 569.91911,656.74275 7.9132915 0 0 0.1133,-0.27148 z"
           transform="scale(0.26458333)" />
        <rect
           style="fill:#5e5e5e;fill-rule:evenodd;stroke-width:75.0001;stroke-linecap:round;stroke-linejoin:round;fill-opacity:1"
           id="rect169"
           width="182.01294"
           height="207.41978"
           x="157.43912"
           y="246.5713" />
        <rect
           style="fill:#5e5e5e;fill-rule:evenodd;stroke-width:22.4711;stroke-linecap:round;stroke-linejoin:round;fill-opacity:1"
           id="rect173"
           width="61.642822"
           height="54.978737"
           x="322.37534"
           y="273.64417" />
        <rect
           style="fill:#5e5e5e;fill-rule:evenodd;stroke-width:22.4711;stroke-linecap:round;stroke-linejoin:round;fill-opacity:1"
           id="rect175"
           width="61.642822"
           height="54.978737"
           x="307.79764"
           y="297.80148" />
      </g>
    </g>
  </g>
</svg>
