<?xml version="1.0" encoding="UTF-8" standalone="no"?>
<svg
   xmlns:dc="http://purl.org/dc/elements/1.1/"
   xmlns:cc="http://creativecommons.org/ns#"
   xmlns:rdf="http://www.w3.org/1999/02/22-rdf-syntax-ns#"
   xmlns:svg="http://www.w3.org/2000/svg"
   xmlns="http://www.w3.org/2000/svg"
   xmlns:sodipodi="http://sodipodi.sourceforge.net/DTD/sodipodi-0.dtd"
   xmlns:inkscape="http://www.inkscape.org/namespaces/inkscape"
   width="210mm"
   height="26.419001mm"
   viewBox="0 0 210 26.419001"
   version="1.1"
   id="svg8"
   inkscape:version="1.0.1 (3bc2e813f5, 2020-09-07)"
   sodipodi:docname="logo wide2.svg">
  <defs
     id="defs2">
    <rect
       x="-7593.5415"
       y="-4603.75"
       width="26140.832"
       height="8546.042"
       id="rect911" />
    <rect
       x="-1048.605"
       y="3329.3208"
       width="26.215124"
       height="131.07562"
       id="rect835" />
  </defs>
  <sodipodi:namedview
     id="base"
     pagecolor="#ffffff"
     bordercolor="#666666"
     borderopacity="1.0"
     inkscape:pageopacity="0.0"
     inkscape:pageshadow="2"
     inkscape:zoom="0.90509668"
     inkscape:cx="358.39738"
     inkscape:cy="47.341827"
     inkscape:document-units="mm"
     inkscape:current-layer="layer1"
     inkscape:document-rotation="0"
     showgrid="false"
     inkscape:window-width="1920"
     inkscape:window-height="1017"
     inkscape:window-x="-8"
     inkscape:window-y="166"
     inkscape:window-maximized="1"
     inkscape:object-paths="true"
     inkscape:snap-intersection-paths="true"
     inkscape:snap-smooth-nodes="true"
     inkscape:snap-midpoints="true"
     height="26.419mm" />
  <metadata
     id="metadata5">
    <rdf:RDF>
      <cc:Work
         rdf:about="">
        <dc:format>image/svg+xml</dc:format>
        <dc:type
           rdf:resource="http://purl.org/dc/dcmitype/StillImage" />
        <dc:title></dc:title>
      </cc:Work>
    </rdf:RDF>
  </metadata>
  <g
     inkscape:label="レイヤー 1"
     inkscape:groupmode="layer"
     id="layer1">
    <text
       xml:space="preserve"
       id="text833"
       style="font-style:normal;font-weight:normal;font-size:10.5833px;line-height:1.25;font-family:sans-serif;white-space:pre;shape-inside:url(#rect835);fill:#000000;fill-opacity:1;stroke:none;" />
    <g
       id="g925"
       transform="matrix(0.0101843,0,0,0.0101843,35.531811,15.555113)">
      <g
         aria-label="Eccitante Server"
         id="text849"
         style="font-style:normal;font-weight:normal;font-size:1940.28px;line-height:4.15;font-family:sans-serif;letter-spacing:-26.4583px;fill:#000000;fill-opacity:1;stroke:none;stroke-width:0.264583">
        <path
           d="m 283.48358,474.7455 q 31.04448,0 42.68616,13.58196 13.58196,13.58196 13.58196,42.68616 v 159.10296 q 0,29.1042 -13.58196,42.68616 -11.64168,13.58196 -42.68616,13.58196 h -869.24545 q -31.04449,0 -44.62645,-13.58196 Q -642.03,719.22078 -642.03,690.11658 V -474.05143 q 0,-29.1042 11.64168,-42.68616 13.58196,-13.58196 44.62645,-13.58196 h 836.26069 q 31.04448,0 42.68616,13.58196 13.58196,13.58196 13.58196,42.68616 v 161.04324 q 0,29.1042 -13.58196,42.68616 -11.64168,13.58196 -42.68616,13.58196 H -335.46575 V -45.249547 H 184.5293 q 31.04448,0 42.68616,13.58196 13.58196,13.58196 13.58196,42.68616 V 162.36042 q 0,29.1042 -13.58196,42.68616 -11.64168,13.58196 -42.68616,13.58196 H -335.46575 V 474.7455 Z"
           style="font-style:normal;font-variant:normal;font-weight:normal;font-stretch:normal;font-size:1940.28px;font-family:Archive;-inkscape-font-specification:Archive;fill:#000000;fill-opacity:1;stroke-width:0.264583"
           id="path846" />
        <path
           d="m 1531.7871,368.0301 q 0,120.29736 -73.7307,213.4308 -73.7306,93.13344 -192.0877,143.58072 -116.4168,50.44729 -238.6544,50.44729 -124.17796,0 -244.47532,-48.50701 -118.35708,-48.507 -197.90856,-147.46128 -77.6112,-98.95428 -77.6112,-242.535 v -457.90609 q 0,-143.58072 77.6112,-242.535 79.55148,-98.95428 197.90856,-147.46128 120.29736,-48.50701 244.47532,-48.50701 124.1779,0 234.7738,42.68617 110.596,40.74588 184.3267,124.17792 73.7306,83.43204 85.3723,201.78912 0,34.92504 -13.582,46.56672 -11.6417,9.7014 -46.5667,9.7014 h -186.2669 q -19.4028,0 -29.1042,-9.7014 -9.7014,-9.7014 -17.4625,-25.22364 -5.8209,-15.52224 -11.6417,-25.22364 -31.0445,-48.507 -77.6112,-69.85008 -44.6264,-23.28336 -122.2376,-23.28336 -97.01404,0 -157.16272,52.38756 -58.2084,50.44728 -58.2084,141.640442 V 309.8217 q 0,91.19316 58.2084,143.58072 60.14868,50.44728 157.16272,50.44728 83.432,0 137.7598,-32.98476 54.3279,-32.98476 65.9696,-98.95428 5.8208,-36.86532 13.5819,-52.38756 9.7014,-17.46252 38.8056,-17.46252 h 190.1475 q 31.0445,0 44.6264,15.52224 13.582,15.52224 13.582,50.44728 z"
           style="font-style:normal;font-variant:normal;font-weight:normal;font-stretch:normal;font-size:1940.28px;font-family:Archive;-inkscape-font-specification:Archive;fill:#000000;fill-opacity:1;stroke-width:0.264583"
           id="path848" />
        <path
           d="m 2731.5858,368.0301 q 0,120.29736 -73.7307,213.4308 -73.7306,93.13344 -192.0877,143.58072 -116.4168,50.44729 -238.6544,50.44729 -124.178,0 -244.4753,-48.50701 -118.3571,-48.507 -197.9086,-147.46128 -77.6112,-98.95428 -77.6112,-242.535 v -457.90609 q 0,-143.58072 77.6112,-242.535 79.5515,-98.95428 197.9086,-147.46128 120.2973,-48.50701 244.4753,-48.50701 124.1779,0 234.7739,42.68617 110.5959,40.74588 184.3266,124.17792 73.7306,83.43204 85.3723,201.78912 0,34.92504 -13.582,46.56672 -11.6417,9.7014 -46.5667,9.7014 h -186.2669 q -19.4028,0 -29.1042,-9.7014 -9.7014,-9.7014 -17.4625,-25.22364 -5.8208,-15.52224 -11.6417,-25.22364 -31.0445,-48.507 -77.6112,-69.85008 -44.6264,-23.28336 -122.2376,-23.28336 -97.014,0 -157.1627,52.38756 -58.2084,50.44728 -58.2084,141.640442 V 309.8217 q 0,91.19316 58.2084,143.58072 60.1487,50.44728 157.1627,50.44728 83.432,0 137.7599,-32.98476 54.3278,-32.98476 65.9695,-98.95428 5.8208,-36.86532 13.5819,-52.38756 9.7014,-17.46252 38.8056,-17.46252 h 190.1475 q 31.0445,0 44.6264,15.52224 13.582,15.52224 13.582,50.44728 z"
           style="font-style:normal;font-variant:normal;font-weight:normal;font-stretch:normal;font-size:1940.28px;font-family:Archive;-inkscape-font-specification:Archive;fill:#000000;fill-opacity:1;stroke-width:0.264583"
           id="path850" />
        <path
           d="m 3502.5825,480.56634 q 31.0445,0 42.6861,13.58196 13.582,13.58196 13.582,42.68616 v 153.28212 q 0,29.1042 -13.582,42.68616 -11.6416,13.58196 -42.6861,13.58196 h -549.0993 q -31.0445,0 -44.6264,-13.58196 -11.6417,-13.58196 -11.6417,-42.68616 V 536.83446 q 0,-29.1042 11.6417,-42.68616 13.5819,-13.58196 44.6264,-13.58196 h 122.2377 v -741.18697 h -118.3571 q -31.0445,0 -44.6265,-13.58196 -11.6416,-13.58196 -11.6416,-42.68616 v -157.16268 q 0,-29.1042 11.6416,-42.68616 13.582,-13.58196 44.6265,-13.58196 h 539.3978 q 31.0445,0 42.6862,13.58196 13.582,13.58196 13.582,42.68616 v 157.16268 q 0,29.1042 -13.582,42.68616 -11.6417,13.58196 -42.6862,13.58196 h -116.4168 v 741.18697 z"
           style="font-style:normal;font-variant:normal;font-weight:normal;font-stretch:normal;font-size:1940.28px;font-family:Archive;-inkscape-font-specification:Archive;fill:#000000;fill-opacity:1;stroke-width:0.264583"
           id="path852" />
        <path
           d="m 4646.1099,-530.31955 q 31.0445,0 42.6862,13.58196 13.582,13.58196 13.582,42.68616 v 161.04324 q 0,29.1042 -13.582,42.68616 -11.6417,13.58196 -42.6862,13.58196 h -296.8628 v 946.85665 q 0,31.04448 -13.582,44.62644 -13.5819,11.64168 -42.6861,11.64168 h -192.0877 q -29.1042,0 -42.6862,-11.64168 -13.582,-13.58196 -13.582,-44.62644 V -256.74007 H 3745.82 q -31.0445,0 -44.6264,-13.58196 -11.6417,-13.58196 -11.6417,-42.68616 v -161.04324 q 0,-29.1042 11.6417,-42.68616 13.5819,-13.58196 44.6264,-13.58196 z"
           style="font-style:normal;font-variant:normal;font-weight:normal;font-stretch:normal;font-size:1940.28px;font-family:Archive;-inkscape-font-specification:Archive;fill:#000000;fill-opacity:1;stroke-width:0.264583"
           id="path854" />
        <path
           d="m 5847.8472,692.05686 q 5.8209,11.64168 5.8209,23.28336 0,31.04448 -38.8056,31.04448 H 5611.133 q -32.9847,0 -48.507,-11.64168 -13.5819,-11.64168 -25.2236,-46.56672 L 5483.0746,534.89418 H 5007.706 l -54.3279,153.28212 q -11.6417,34.92504 -27.1639,46.56672 -13.582,11.64168 -46.5667,11.64168 h -203.7294 q -38.8056,0 -38.8056,-31.04448 0,-11.64168 5.8208,-23.28336 l 430.7422,-1162.22773 q 11.6417,-31.04448 29.1042,-44.62644 19.4028,-15.52224 50.4473,-15.52224 h 186.2668 q 31.0445,0 48.507,15.52224 17.4626,13.58196 31.0445,44.62644 z m -601.4868,-857.60377 -145.521,428.80189 h 291.042 z"
           style="font-style:normal;font-variant:normal;font-weight:normal;font-stretch:normal;font-size:1940.28px;font-family:Archive;-inkscape-font-specification:Archive;fill:#000000;fill-opacity:1;stroke-width:0.264583"
           id="path856" />
        <path
           d="m 6973.9125,-530.31955 q 29.1042,0 42.6862,13.58196 13.5819,11.64168 13.5819,42.68616 V 690.11658 q 0,29.1042 -13.5819,42.68616 -11.6417,13.58196 -42.6862,13.58196 H 6797.347 q -32.9847,0 -48.507,-13.58196 -13.582,-13.58196 -38.8056,-52.38756 L 6298.695,14.899134 V 690.11658 q 0,31.04448 -13.5819,44.62644 -13.582,11.64168 -42.6862,11.64168 h -192.0877 q -29.1042,0 -42.6862,-11.64168 -13.5819,-13.58196 -13.5819,-44.62644 V -474.05143 q 0,-29.1042 11.6417,-42.68616 13.5819,-13.58196 44.6264,-13.58196 h 182.3863 q 32.9848,0 46.5667,13.58196 15.5223,13.58196 40.7459,52.38756 l 411.3394,663.57577 v -673.27717 q 0,-31.04448 13.5819,-42.68616 13.582,-13.58196 42.6862,-13.58196 z"
           style="font-style:normal;font-variant:normal;font-weight:normal;font-stretch:normal;font-size:1940.28px;font-family:Archive;-inkscape-font-specification:Archive;fill:#000000;fill-opacity:1;stroke-width:0.264583"
           id="path858" />
        <path
           d="m 8154.3067,-530.31955 q 31.0445,0 42.6862,13.58196 13.5819,13.58196 13.5819,42.68616 v 161.04324 q 0,29.1042 -13.5819,42.68616 -11.6417,13.58196 -42.6862,13.58196 h -296.8628 v 946.85665 q 0,31.04448 -13.582,44.62644 -13.5819,11.64168 -42.6861,11.64168 H 7609.088 q -29.1042,0 -42.6861,-11.64168 -13.582,-13.58196 -13.582,-44.62644 v -946.85665 h -298.8031 q -31.0445,0 -44.6264,-13.58196 -11.6417,-13.58196 -11.6417,-42.68616 v -161.04324 q 0,-29.1042 11.6417,-42.68616 13.5819,-13.58196 44.6264,-13.58196 z"
           style="font-style:normal;font-variant:normal;font-weight:normal;font-stretch:normal;font-size:1940.28px;font-family:Archive;-inkscape-font-specification:Archive;fill:#000000;fill-opacity:1;stroke-width:0.264583"
           id="path860" />
        <path
           d="m 9303.6574,474.7455 q 31.0445,0 42.6862,13.58196 13.5819,13.58196 13.5819,42.68616 v 159.10296 q 0,29.1042 -13.5819,42.68616 -11.6417,13.58196 -42.6862,13.58196 H 8434.412 q -31.0445,0 -44.6265,-13.58196 -11.6417,-13.58196 -11.6417,-42.68616 V -474.05143 q 0,-29.1042 11.6417,-42.68616 13.582,-13.58196 44.6265,-13.58196 h 836.2606 q 31.0445,0 42.6862,13.58196 13.582,13.58196 13.582,42.68616 v 161.04324 q 0,29.1042 -13.582,42.68616 -11.6417,13.58196 -42.6862,13.58196 h -585.9645 v 211.490523 h 519.995 q 31.0445,0 42.6862,13.58196 13.5819,13.58196 13.5819,42.68616 V 162.36042 q 0,29.1042 -13.5819,42.68616 -11.6417,13.58196 -42.6862,13.58196 h -519.995 V 474.7455 Z"
           style="font-style:normal;font-variant:normal;font-weight:normal;font-stretch:normal;font-size:1940.28px;font-family:Archive;-inkscape-font-specification:Archive;fill:#000000;fill-opacity:1;stroke-width:0.264583"
           id="path862" />
        <path
           d="m 10669.083,5.1977334 q 104.775,31.0444806 172.685,64.0292406 67.91,32.984756 120.297,104.775126 52.388,71.79036 52.388,194.028 0,199.84884 -141.641,304.62396 -141.64,102.83485 -374.474,102.83485 -126.118,0 -246.415,-46.56673 -120.298,-48.507 -197.909,-141.64044 -77.6112,-95.07372 -77.6112,-223.1322 0,-32.98476 11.6417,-42.68616 11.6417,-11.64168 44.6265,-11.64168 h 188.207 q 36.865,0 52.388,9.7014 15.522,9.7014 17.462,44.62644 3.881,40.74588 36.866,79.55148 27.163,32.98476 77.611,48.507 52.387,15.52224 112.536,15.52224 89.253,0 139.7,-27.16392 50.447,-29.1042 50.447,-104.77512 0,-54.32784 -50.447,-79.55148 -50.447,-25.22364 -159.103,-50.44728 -97.014,-23.28336 -128.058,-32.98476 -118.357,-36.86532 -197.909,-79.55148 -77.611,-42.686165 -128.058,-116.416806 -50.4477,-73.730642 -50.4477,-190.147444 0,-120.29736 64.0297,-205.66968 65.969,-85.37232 172.685,-129.99876 108.655,-44.62645 234.773,-50.44729 129.999,0 248.356,40.74589 118.357,40.74588 192.088,124.17792 75.671,81.49176 75.671,203.7294 0,34.92504 -11.642,44.62644 -9.701,9.7014 -44.626,9.7014 h -190.148 q -21.343,0 -31.044,-9.7014 -9.702,-11.64168 -15.522,-25.22364 -3.881,-13.58196 -5.821,-17.46252 -11.642,-29.1042 -40.746,-58.2084 -27.164,-25.22364 -73.731,-38.8056 -44.626,-13.58196 -91.193,-13.58196 -62.089,0 -116.417,27.16392 -54.328,27.16392 -54.328,85.37232 0,60.14868 77.612,97.014002 79.551,36.865321 207.61,71.790361 54.327,11.6416802 77.611,23.2833604 z"
           style="font-style:normal;font-variant:normal;font-weight:normal;font-stretch:normal;font-size:1940.28px;font-family:Archive;-inkscape-font-specification:Archive;fill:#000000;fill-opacity:1;stroke-width:0.264583"
           id="path864" />
        <path
           d="m 12140.52,474.7455 q 31.044,0 42.686,13.58196 13.582,13.58196 13.582,42.68616 v 159.10296 q 0,29.1042 -13.582,42.68616 -11.642,13.58196 -42.686,13.58196 h -869.246 q -31.044,0 -44.626,-13.58196 -11.642,-13.58196 -11.642,-42.68616 V -474.05143 q 0,-29.1042 11.642,-42.68616 13.582,-13.58196 44.626,-13.58196 h 836.261 q 31.044,0 42.686,13.58196 13.582,13.58196 13.582,42.68616 v 161.04324 q 0,29.1042 -13.582,42.68616 -11.642,13.58196 -42.686,13.58196 h -585.965 v 211.490523 h 519.995 q 31.045,0 42.687,13.58196 13.582,13.58196 13.582,42.68616 V 162.36042 q 0,29.1042 -13.582,42.68616 -11.642,13.58196 -42.687,13.58196 H 11521.57 V 474.7455 Z"
           style="font-style:normal;font-variant:normal;font-weight:normal;font-stretch:normal;font-size:1940.28px;font-family:Archive;-inkscape-font-specification:Archive;fill:#000000;fill-opacity:1;stroke-width:0.264583"
           id="path866" />
        <path
           d="m 13450.913,684.29574 q 7.761,13.58196 7.761,27.16392 0,15.52224 -9.702,25.22364 -9.701,9.7014 -27.163,9.7014 h -228.953 q -32.985,0 -54.328,-13.58196 -21.343,-13.58196 -42.686,-44.62644 l -209.551,-312.38508 q -13.582,-17.46252 -17.462,-36.86532 -3.881,-21.34308 -3.881,-62.08896 v -155.2224 q 0,-29.104205 11.642,-42.686165 13.582,-13.581961 44.626,-13.581961 h 38.806 q 73.731,0 128.058,-44.62644 56.269,-46.566721 56.269,-112.536242 0,-73.730642 -50.448,-118.357082 -50.447,-46.56672 -128.058,-46.56672 h -258.057 v 946.85665 q 0,31.04448 -13.582,44.62644 -13.582,11.64168 -42.687,11.64168 h -192.087 q -27.164,0 -40.746,-11.64168 -13.582,-13.58196 -13.582,-44.62644 V -472.11115 q 0,-29.1042 11.642,-42.68616 11.641,-13.58196 42.686,-13.58196 h 488.95 q 151.342,0 234.774,29.1042 85.372,29.1042 151.342,95.07372 54.328,52.38756 83.432,131.93904 29.104,79.55148 29.104,172.684922 0,95.0737213 -40.746,176.565482 -40.746,79.551486 -102.835,133.879326 -62.088,54.32784 -126.118,75.67092 z"
           style="font-style:normal;font-variant:normal;font-weight:normal;font-stretch:normal;font-size:1940.28px;font-family:Archive;-inkscape-font-specification:Archive;fill:#000000;fill-opacity:1;stroke-width:0.264583"
           id="path868" />
        <path
           d="m 14689.514,-530.31955 q 19.402,0 29.104,11.64168 9.701,9.7014 9.701,25.22364 0,7.76112 -3.88,19.4028 l -415.22,1162.22773 q -17.463,36.86532 -32.985,48.507 -13.582,9.7014 -46.567,9.7014 H 14043.4 q -32.985,0 -48.507,-9.7014 -13.582,-11.64168 -31.044,-48.507 l -417.16,-1162.22773 q -3.881,-11.64168 -3.881,-19.4028 0,-15.52224 9.701,-25.22364 9.702,-11.64168 29.105,-11.64168 h 215.371 q 36.865,0 52.387,13.58196 15.522,11.64168 27.164,48.507 l 263.878,803.27593 261.938,-803.27593 q 11.642,-36.86532 27.164,-48.507 15.522,-13.58196 54.328,-13.58196 z"
           style="font-style:normal;font-variant:normal;font-weight:normal;font-stretch:normal;font-size:1940.28px;font-family:Archive;-inkscape-font-specification:Archive;fill:#000000;fill-opacity:1;stroke-width:0.264583"
           id="path870" />
        <path
           d="m 15803.94,474.7455 q 31.044,0 42.686,13.58196 13.582,13.58196 13.582,42.68616 v 159.10296 q 0,29.1042 -13.582,42.68616 -11.642,13.58196 -42.686,13.58196 h -869.246 q -31.044,0 -44.626,-13.58196 -11.642,-13.58196 -11.642,-42.68616 V -474.05143 q 0,-29.1042 11.642,-42.68616 13.582,-13.58196 44.626,-13.58196 h 836.261 q 31.044,0 42.686,13.58196 13.582,13.58196 13.582,42.68616 v 161.04324 q 0,29.1042 -13.582,42.68616 -11.642,13.58196 -42.686,13.58196 h -585.965 v 211.490523 h 519.995 q 31.045,0 42.687,13.58196 13.581,13.58196 13.581,42.68616 V 162.36042 q 0,29.1042 -13.581,42.68616 -11.642,13.58196 -42.687,13.58196 H 15184.99 V 474.7455 Z"
           style="font-style:normal;font-variant:normal;font-weight:normal;font-stretch:normal;font-size:1940.28px;font-family:Archive;-inkscape-font-specification:Archive;fill:#000000;fill-opacity:1;stroke-width:0.264583"
           id="path872" />
        <path
           d="m 17123.236,694.62018 q 7.827,13.6976 7.827,27.39519 0,15.65439 -9.785,25.43839 -9.783,9.78399 -27.394,9.78399 h -230.903 q -33.265,0 -54.79,-13.69759 -21.524,-13.69759 -43.05,-45.00638 l -211.334,-315.04466 q -13.698,-17.61119 -17.611,-37.17918 -3.914,-21.52479 -3.914,-62.61757 V 127.14844 q 0,-29.351991 11.741,-43.049585 13.698,-13.697595 45.006,-13.697595 h 39.136 q 74.359,0 129.149,-45.006379 56.747,-46.96318 56.747,-113.49435 0,-74.358371 -50.877,-119.364751 -50.876,-46.96318 -129.148,-46.96318 h -260.255 v 954.91798 q 0,31.30878 -13.697,45.00638 -13.697,11.74079 -43.05,11.74079 h -193.722 q -27.396,0 -41.093,-11.74079 -13.698,-13.6976 -13.698,-45.00638 V -471.6321 q 0,-29.35198 11.74,-43.04958 11.741,-13.69759 43.051,-13.69759 h 493.112 q 152.631,0 236.773,29.35199 86.099,29.35198 152.631,95.88315 54.79,52.83358 84.142,133.06234 29.352,80.22877 29.352,174.155124 0,95.88315794 -41.093,178.068721 -41.093,80.228765 -103.711,135.019145 -62.617,54.79037 -127.191,76.31516 z"
           style="font-style:normal;font-variant:normal;font-weight:normal;font-stretch:normal;font-size:1940.28px;font-family:Archive;-inkscape-font-specification:Archive;fill:#000000;fill-opacity:1;stroke-width:0.266836"
           id="path874" />
      </g>
      <path
         id="path835"
         style="fill:#000000;fill-opacity:1;fill-rule:evenodd;stroke:#ffffff;stroke-width:5.07639;stroke-linecap:round;stroke-linejoin:round;stroke-miterlimit:4;stroke-dasharray:none;stroke-opacity:1"
         d="M -897.37683,230.34082 A 1294.4828,1294.4829 0 0 1 -2191.8596,1524.8237 1294.4828,1294.4829 0 0 1 -3486.3424,230.34082 1294.4828,1294.4829 0 0 1 -2191.8596,-1064.1421 1294.4828,1294.4829 0 0 1 -897.37683,230.34082 Z"
         transform="scale(1,-1)" />
      <g
         id="g949"
         transform="matrix(2.1347461,0,0,2.1347461,-2374.0379,-583.59006)">
        <path
           id="path861-8"
           style="fill:#f3bf5e;fill-opacity:1;stroke:#ffffff;stroke-width:18.8976;stroke-linecap:round;stroke-linejoin:round;stroke-miterlimit:4;stroke-dasharray:none;stroke-opacity:1"
           d="m -1344.6484,-334.77539 -1.0293,1925.74219 1668.17965,961.8125 0.002,-0.1445 -0.0215,0.1289 0.0234,-241.0059 -1464.97655,-844.957 -0.012,-602.24025 1464.97262,845.79105 v -240.1875 l -1464.97262,-845.79105 -0.012,-602.244144 1464.97651,845.794924 0.01,-240.1875 z"
           inkscape:export-xdpi="96"
           inkscape:export-ydpi="96"
           transform="scale(0.26458333)" />
        <g
           id="g924"
           style="stroke:#ffffff;stroke-width:5;stroke-linecap:round;stroke-linejoin:round;stroke-miterlimit:4;stroke-dasharray:none;stroke-opacity:1"
           inkscape:export-xdpi="96"
           inkscape:export-ydpi="96">
          <path
             id="path865"
             style="fill:#6bf3f6;fill-opacity:1;stroke:#ffffff;stroke-width:18.8976;stroke-linecap:round;stroke-linejoin:round;stroke-miterlimit:4;stroke-dasharray:none;stroke-opacity:1"
             d="m 1990.6914,-340.51758 -1668.19726,968.25196 -0.002,48.03515 v 192.1543 l -0.002,602.23637 0.002,240.1855 1464.77736,-845.69336 0.012,603.93356 -1464.77539,843.1661 2.1875,1.2617 -2.18945,239.7402 L 1990.7637,1590.8262 1989.623,507.63477 530.67773,1349.9668 530.67188,747.73047 1989.6211,-94.605469 Z M 322.48828,1710.3457 v 0 h 0.002 z m -0.006,842.418 v 0 h 0.002 z"
             inkscape:export-xdpi="96"
             inkscape:export-ydpi="96"
             transform="scale(0.26458333)" />
          <g
             id="g919"
             style="stroke:#ffffff;stroke-width:5;stroke-linecap:round;stroke-linejoin:round;stroke-miterlimit:4;stroke-dasharray:none;stroke-opacity:1">
            <path
               style="fill:#6bf3f6;fill-opacity:1;stroke:#ffffff;stroke-width:5;stroke-linecap:round;stroke-linejoin:round;stroke-miterlimit:4;stroke-dasharray:none;stroke-opacity:1"
               d="m 85.329674,611.65258 -0.0062,63.76614 0.41933,-1.11136 0.475594,-62.67651 z"
               id="path909"
               inkscape:export-xdpi="96"
               inkscape:export-ydpi="96" />
          </g>
        </g>
        <g
           id="g916"
           style="fill:#f0a5ff;fill-opacity:1;stroke:#ffffff;stroke-width:5;stroke-miterlimit:4;stroke-dasharray:none;stroke-opacity:1"
           inkscape:export-xdpi="96"
           inkscape:export-ydpi="96">
          <g
             id="g929"
             style="stroke:#ffffff;stroke-width:5;stroke-miterlimit:4;stroke-dasharray:none;stroke-opacity:1">
            <path
               id="path896"
               style="fill:#f0a5ff;fill-opacity:1;stroke:#ffffff;stroke-width:18.8976;stroke-linecap:round;stroke-linejoin:round;stroke-miterlimit:4;stroke-dasharray:none;stroke-opacity:1"
               d="M 323.63672,-1301.9453 165.8418,40.248047 -510.10156,-818.56055 -45.53125,171.69727 -1135.3789,-456.08789 l -209.0742,121.20117 1455.61521,840.58594 0.0195,0.0391 h 0.0488 L 322.49219,627.73633 1989.5684,-339.86523 1780.084,-460.81055 685.36914,173.19727 1151.709,-820.83203 476.9375,36.488281 Z"
               transform="scale(0.26458333)" />
          </g>
        </g>
      </g>
    </g>
    <text
       xml:space="preserve"
       id="text909"
       style="font-style:normal;font-weight:normal;font-size:10.5833px;line-height:1.25;font-family:sans-serif;white-space:pre;shape-inside:url(#rect911);fill:#000000;fill-opacity:1;stroke:none;" />
  </g>
</svg>
