<?xml version="1.0" encoding="UTF-8" standalone="no"?>
<svg
   xmlns:dc="http://purl.org/dc/elements/1.1/"
   xmlns:cc="http://creativecommons.org/ns#"
   xmlns:rdf="http://www.w3.org/1999/02/22-rdf-syntax-ns#"
   xmlns:svg="http://www.w3.org/2000/svg"
   xmlns="http://www.w3.org/2000/svg"
   xmlns:sodipodi="http://sodipodi.sourceforge.net/DTD/sodipodi-0.dtd"
   xmlns:inkscape="http://www.inkscape.org/namespaces/inkscape"
   width="210mm"
   height="210mm"
   viewBox="0 0 210 210"
   version="1.1"
   id="svg8"
   inkscape:version="1.0.1 (3bc2e813f5, 2020-09-07)"
   sodipodi:docname="Instagram data.svg"
   inkscape:export-filename="D:\iPhone\Instagram\Instagram icon.png"
   inkscape:export-xdpi="95.845306"
   inkscape:export-ydpi="95.845306">
  <defs
     id="defs2" />
  <sodipodi:namedview
     id="base"
     pagecolor="#ffffff"
     bordercolor="#666666"
     borderopacity="1.0"
     inkscape:pageopacity="0.0"
     inkscape:pageshadow="2"
     inkscape:zoom="0.4373114"
     inkscape:cx="460.34094"
     inkscape:cy="575.09354"
     inkscape:document-units="mm"
     inkscape:current-layer="layer1"
     inkscape:document-rotation="0"
     showgrid="false"
     showguides="false"
     inkscape:window-width="1920"
     inkscape:window-height="1017"
     inkscape:window-x="-8"
     inkscape:window-y="166"
     inkscape:window-maximized="1"
     inkscape:snap-midpoints="true"
     inkscape:snap-smooth-nodes="true"
     inkscape:snap-intersection-paths="true"
     inkscape:object-paths="true"
     inkscape:snap-nodes="true" />
  <metadata
     id="metadata5">
    <rdf:RDF>
      <cc:Work
         rdf:about="">
        <dc:format>image/svg+xml</dc:format>
        <dc:type
           rdf:resource="http://purl.org/dc/dcmitype/StillImage" />
        <dc:title />
      </cc:Work>
    </rdf:RDF>
  </metadata>
  <g
     inkscape:label="レイヤー 1"
     inkscape:groupmode="layer"
     id="layer1">
    <circle
       style="fill:#5e5e5e;fill-opacity:1;stroke:none;stroke-width:14.8789;stroke-linecap:round;stroke-linejoin:round;stroke-miterlimit:4;stroke-dasharray:none;stroke-opacity:1"
       id="path839"
       cx="158.59885"
       cy="47.70446"
       r="11.813251" />
    <path
       id="path859"
       style="fill:#5e5e5e;fill-opacity:1;fill-rule:evenodd;stroke:none;stroke-width:6.05855;stroke-linecap:round;stroke-linejoin:round;stroke-opacity:1"
       d="M 398.42383 203.41406 A 201.26023 191.8619 0 0 0 197.16406 395.27734 A 201.26023 191.8619 0 0 0 398.42383 587.13867 A 201.26023 191.8619 0 0 0 599.68555 395.27734 A 201.26023 191.8619 0 0 0 398.42383 203.41406 z M 397.94922 259.72461 A 135.55171 135.55171 0 0 1 398.42383 259.72461 A 135.55171 135.55171 0 0 1 533.97656 395.27734 A 135.55171 135.55171 0 0 1 398.42383 530.82812 A 135.55171 135.55171 0 0 1 262.87305 395.27734 A 135.55171 135.55171 0 0 1 397.94922 259.72461 z "
       transform="scale(0.26458333)" />
    <path
       id="rect852"
       style="fill:#5e5e5e;fill-opacity:1;fill-rule:evenodd;stroke:none;stroke-width:17.4319;stroke-linecap:round;stroke-linejoin:round;stroke-miterlimit:4;stroke-dasharray:none;stroke-opacity:1"
       d="M 67.595252,2.1225024e-4 C 30.147692,2.1225024e-4 -9.8e-5,30.147489 -9.8e-5,67.595049 v 74.809901 c 0,37.44756 30.14779,67.59485 67.59535,67.59485 H 142.40516 C 179.85272,209.9998 210,179.85251 210,142.40495 V 67.595049 C 210,30.147489 179.85272,2.1225024e-4 142.40516,2.1225024e-4 Z M 66.504372,27.144809 h 76.991678 c 21.80491,0 39.35884,17.55393 39.35884,39.35884 v 76.992711 c 0,21.80491 -17.55393,39.35883 -39.35884,39.35883 H 66.504372 c -21.80491,0 -39.35936,-17.55392 -39.35936,-39.35883 V 66.503649 c 0,-21.80491 17.55445,-39.35884 39.35936,-39.35884 z" />
  </g>
</svg>
